<svg id="Layer_1" data-name="Layer 1" xmlns="http://www.w3.org/2000/svg" viewBox="0 0 865.92 1049.06">
   <style>
        path {
            fill: black;
        }
        @media (prefers-color-scheme: dark) {
            path { fill: white; }
        }
    </style>
    <path d="M983.1,708.05,872.41,568.36V16.47L631.72,361.75l-81.48-41.34v7l0,0v-7L467,362,228.06,16.41V564.72L117.18,706.58,550,1065.23l.28.24Zm-440.31,88.8-.2-.16h0L510.8,772,467.17,738.5l49.08,3.8,19.91,1.51,14.08,1.36v57.51l0,0v-.06ZM528,801.73l.38.3,8.76,6.73v0l8.08,6.23,5,3.86v218.65L458,747.86ZM550.24,352.5V731.87l-26.34-2h0l-.54-.05L456,724.56Zm-80.15,22.55,71.1-36.51-95,370.78L402.43,565.7Zm-102,287.32,27-76L433.6,712.7Zm56.34,59.75L349,716.29l14.55-41Zm33.1-350.76L396,544.72,253,75.45ZM241.1,81.07,388.71,565.39,357.26,654,241.1,564.72Zm-5.84,495.61,117.41,90.25-17.14,48.32L138.84,700Zm-89.07,137L331,728,292.92,835.29ZM303.62,844.15,344.48,729l95.23,7.36-44.14,184Zm103.14,85.47L447.7,759,537,1037.59Z" fill="white" transform="translate(-117.18 -16.41)"/>
</svg>
